<?xml version="1.0" standalone="no"?>
<!DOCTYPE svg PUBLIC "-//W3C//DTD SVG 20010904//EN"
 "http://www.w3.org/TR/2001/REC-SVG-20010904/DTD/svg10.dtd">
<svg version="1.0" xmlns="http://www.w3.org/2000/svg"
 width="260.000000pt" height="260.000000pt" viewBox="0 0 260.000000 260.000000"
 preserveAspectRatio="xMidYMid meet">
<metadata>
Created by potrace 1.11, written by Peter Selinger 2001-2013
</metadata>
<g transform="translate(0.000000,260.000000) scale(0.100000,-0.100000)"
fill="#000000" stroke="none">
<path d="M0 1300 l0 -1300 1300 0 1300 0 0 1300 0 1300 -1300 0 -1300 0 0
-1300z m1425 1149 c440 -54 816 -366 949 -787 105 -334 55 -690 -140 -989 -49
-75 -232 -258 -307 -307 -596 -388 -1373 -173 -1676 465 -263 552 -34 1219
515 1501 206 106 428 145 659 117z"/>
<path d="M1115 2395 c-584 -94 -993 -641 -914 -1222 34 -250 149 -476 332
-649 436 -415 1116 -402 1534 29 121 125 200 253 256 417 22 64 57 228 57 268
0 9 -30 12 -119 12 l-119 0 -7 -62 c-39 -341 -277 -623 -610 -724 -80 -24
-106 -27 -235 -27 -129 0 -155 3 -235 27 -354 107 -590 408 -612 776 -19 336
180 665 490 811 71 33 189 65 276 75 l61 7 0 138 0 139 -37 -1 c-21 -1 -74 -7
-118 -14z"/>
<path d="M1320 2272 l0 -139 84 -12 c218 -33 399 -134 541 -302 100 -118 173
-292 190 -451 l7 -68 119 0 119 0 0 53 c0 28 -7 91 -15 139 -84 477 -451 835
-932 907 -124 19 -113 32 -113 -127z"/>
<path d="M1162 2069 c-85 -14 -201 -57 -277 -101 -96 -56 -237 -201 -292 -298
-175 -313 -118 -707 138 -957 98 -95 157 -134 270 -178 464 -182 980 106 1074
600 25 128 49 115 -214 115 l-230 0 -16 -56 c-35 -121 -116 -203 -235 -238
-68 -20 -122 -20 -190 0 -101 30 -171 91 -217 189 -39 84 -39 195 -1 276 48
105 136 176 246 200 l52 11 0 224 0 224 -27 -1 c-16 -1 -52 -5 -81 -10z"/>
<path d="M1322 1854 l3 -228 38 -8 c126 -26 228 -131 258 -265 l12 -53 229 0
228 0 0 23 c0 47 -22 153 -45 220 -100 286 -361 494 -668 532 l-57 7 2 -228z"/>
</g>
</svg>
